<?xml version="1.0" encoding="UTF-8" standalone="no"?>
<!-- Created with Inkscape (http://www.inkscape.org/) -->

<svg
   width="2309.1443mm"
   height="758.8913mm"
   viewBox="0 0 2309.1443 758.8913"
   version="1.1"
   id="svg1"
   xml:space="preserve"
   inkscape:version="1.4.2 (ebf0e940d0, 2025-05-08)"
   sodipodi:docname="repr_2.svg"
   xmlns:inkscape="http://www.inkscape.org/namespaces/inkscape"
   xmlns:sodipodi="http://sodipodi.sourceforge.net/DTD/sodipodi-0.dtd"
   xmlns="http://www.w3.org/2000/svg"
   xmlns:svg="http://www.w3.org/2000/svg"><sodipodi:namedview
     id="namedview1"
     pagecolor="#ffffff"
     bordercolor="#000000"
     borderopacity="0.25"
     inkscape:showpageshadow="2"
     inkscape:pageopacity="0.0"
     inkscape:pagecheckerboard="true"
     inkscape:deskcolor="#d1d1d1"
     inkscape:document-units="mm"
     showguides="true"
     inkscape:zoom="0.12917368"
     inkscape:cx="5121.0123"
     inkscape:cy="2283.747"
     inkscape:window-width="2560"
     inkscape:window-height="1403"
     inkscape:window-x="0"
     inkscape:window-y="0"
     inkscape:window-maximized="1"
     inkscape:current-layer="layer1"
     showgrid="false"><sodipodi:guide
       position="698.19994,-49.127823"
       orientation="1,0"
       id="guide2"
       inkscape:locked="false" /></sodipodi:namedview><defs
     id="defs1"><rect
       id="a"
       transform="rotate(-90,347.4065,294.9535)"
       x="282.79999"
       y="197.2"
       width="129.3"
       height="195.5" /></defs><g
     inkscape:label="Layer 1"
     inkscape:groupmode="layer"
     id="layer1"
     transform="translate(921.12596,366.51457)"><g
       transform="matrix(1.1066635,0,0,1.2691826,-472.01847,-19.799727)"
       id="g12"
       style="stroke-width:2.4"><path
         d="m 23.36,116.32 v -7.42 c 7.4,-1.9 67.86,0 81.28,0 v 7.42 c 0,4.24 -18.2,7.68 -40.64,7.68 -22.44,0 -40.64,-3.44 -40.64,-7.68 z"
         fill="#8b5738"
         stroke-width="5.4489"
         id="path4-2" /><ellipse
         cx="64"
         cy="108.48"
         rx="40.639999"
         ry="7.6799998"
         fill="#ffb17a"
         stroke-width="5.4489"
         id="ellipse4" /><ellipse
         cx="64"
         cy="108.48"
         rx="40.639999"
         ry="7.6799998"
         fill="#cc8552"
         stroke-width="5.4489"
         id="ellipse5" /><path
         d="m 69.96,65.49 c -0.75,-0.31 -1.07,-0.92 -1.07,-1.73 0,-0.81 0.25,-1.39 0.98,-1.64 4.61,-1.86 27.77,-10.73 27.77,-38.36 l -0.18,-4.82 -66.98,-0.08 -0.12,5.07 c 0,26.79 23.08,36.25 27.68,38.11 0.75,0.31 1.22,0.82 1.22,1.73 0,0.91 -0.39,1.39 -1.13,1.64 -4.61,1.86 -27.77,10.73 -27.77,38.36 0.12,3.12 1.6,5.57 5.34,6.5 5.03,1.25 14.38,2.57 30.53,2.57 13.91,0 21.7,-1.02 26.03,-2.03 4.25,-0.99 5.29,-3.44 5.36,-6.6 l 0.01,-0.61 C 97.64,76.81 74.57,67.35 69.96,65.49 Z"
         fill="#81d4fa"
         opacity="0.75"
         stroke-width="5.4489"
         id="path5-0" /><path
         d="m 97.46,18.94 -66.98,-0.08 -0.11,4.52 c 0,0 7.25,3.72 33.63,3.72 26.38,0 33.63,-3.72 33.63,-3.72 z"
         fill="#1d44b3"
         opacity="0.39"
         stroke-width="5.4489"
         id="path6-6" /><path
         d="m 23.36,17.94 v -7.87 c 7.18,-0.96 70.91,0 81.28,0 v 7.87 c 0,3.36 -18.2,6.08 -40.64,6.08 -22.44,0 -40.64,-2.72 -40.64,-6.08 z"
         fill="#8b5738"
         stroke-width="5.4489"
         id="path7-8" /><ellipse
         cx="64"
         cy="10.08"
         rx="40.639999"
         ry="6.0799999"
         fill="#cc8552"
         stroke-width="5.4489"
         id="ellipse7" /><path
         d="m 60.32,74.41 c 1.06,-1.64 1.27,-4.51 4.48,-4.51 1.81,0 28.02,34.52 26.07,36.8 -0.65,0.76 -1.61,1.07 -2.53,1.33 -15.38,4.34 -38.86,3.26 -48.98,-0.97 -4.03,-1.68 3.51,-11.33 5.39,-13.63 0.66,-0.8 12.06,-13.62 15.57,-19.02 z"
         fill="#ffca28"
         stroke-width="5.4489"
         id="path8-9" /><path
         d="m 65.45,74.21 c 3.76,7.16 4.89,12.49 6.53,20.58 0.84,4.11 3.96,15.49 7.74,15.02 3.04,-0.44 5.95,-1.02 8.61,-1.78 0.92,-0.26 1.88,-0.57 2.53,-1.33 0.55,-0.65 0.1,-3.59 -4.3,-9.64 C 82.79,91.89 77.42,84.67 76.56,83.01 72.7,75.57 66.75,69.66 64.8,69.9 c -1.39,0.16 -0.22,2.65 0.65,4.31 z"
         fill="#e2a610"
         stroke-width="5.4489"
         id="path9-2" /><g
         fill="#ffffff"
         opacity="0.6"
         stroke-width="8.2104"
         id="g11"><path
           d="m 42.9,80.6 c -3.13,3.66 -5.48,8.58 -4.59,13.33 0.94,5.01 5.6,3.63 7.22,2.36 5.16,-4.05 3.75,-9.24 7.74,-15.07 0.68,-1 3.52,-4.13 3.12,-6.1 -0.24,-1.17 -2.96,-1.77 -7.91,0.71 -2.18,1.1 -3.97,2.9 -5.58,4.77 z"
           id="path10-6" /><path
           d="m 45.79,37.66 c 1.26,2.94 3.56,9.61 0.56,10.75 -3,1.15 -7.39,-3.11 -9.47,-7.39 -2.08,-4.28 -1.89,-9.96 1.25,-10.05 3.14,-0.09 5.99,2.8 7.66,6.69 z"
           id="path11-6" /></g></g><g
       id="g109"
       transform="translate(-735.96922,-44.037931)"><rect
         x="-184.8895"
         y="-36.108746"
         width="454.71289"
         height="262.65979"
         fill="#929292"
         id="rect2"
         style="stroke-width:0.264583" /><path
         d="M 264.92597,226.59869 V 202.0099 h -450.08271 v 24.58879 z"
         fill="#ffffff"
         id="path29"
         style="stroke-width:0.264583" /><path
         d="m 264.92861,202.66184 c -0.22678,0.0509 -82.48121,18.52321 -106.96575,23.93659 h 106.6509 l 0.31421,-16.93334 v -7.00325 z"
         fill="#cccccc"
         id="path36"
         style="stroke-width:0.264583" /><path
         d="m -185.15674,202.0189 h 450.08271 v 24.58879"
         fill="none"
         stroke="#000000"
         stroke-dashoffset="0.8"
         stroke-linejoin="round"
         stroke-width="3.175"
         id="path74" /><path
         d="m 261.22445,202.0189 -113.93488,24.58984 h 13.07359 l 104.33844,-22.25489 -1.19465,-2.33474 z"
         color="#000000"
         style="text-indent:0;text-transform:none;stroke-width:0.264583"
         id="path75" /><path
         d="m -87.202696,190.50952 116.530436,0.13362 23.385992,8.41904 0.267282,6.94902 H -85.19763"
         fill="#cccccc"
         stroke="#000000"
         stroke-dashoffset="0.8"
         stroke-linejoin="round"
         stroke-width="3.175"
         id="path76" /><path
         d="m 29.193596,190.9064 -0.39698,14.2113"
         fill="none"
         stroke="#000000"
         stroke-dashoffset="0.8"
         stroke-linejoin="round"
         stroke-width="3.175"
         id="path77" /><path
         d="m -154.82226,68.105338 31.4034,115.995982 126.1506838,-3.47451 9.0950522,-9.83192 -28.911021,-140.962059 -128.555745,2e-6 -9.85097,9.140825 z"
         fill="#ffffff"
         stroke="#000000"
         stroke-dashoffset="0.8"
         stroke-linejoin="round"
         stroke-width="3.175"
         id="path84" /><path
         d="m -17.05372,29.986818 -9.367838,10.128514 -16.164454,27.119791 24.854429,108.288667 -44.598166,1.5131 -11.955992,5.70494 77.017562,-2.11666 9.095052,-9.83086 -28.881916,-140.808604 z"
         fill="#cccccc"
         stroke="#000000"
         stroke-linecap="round"
         stroke-linejoin="round"
         stroke-width="3.175"
         id="path85" /><path
         d="M -155.75624,39.506526 -26.398801,40.041064 2.2000113,180.09031"
         fill="none"
         stroke="#000000"
         stroke-dashoffset="0.8"
         stroke-linejoin="round"
         stroke-width="3.175"
         id="path86" /><path
         d="M -17.667551,175.56057 -42.703219,67.57088 -154.82305,68.105418"
         fill="none"
         stroke="#000000"
         stroke-dashoffset="0.8"
         stroke-linejoin="round"
         stroke-width="3.175"
         id="path87" /><path
         d="M -42.969655,67.57088 -26.933524,40.308214"
         fill="none"
         stroke="#000000"
         stroke-dashoffset="0.8"
         stroke-linejoin="round"
         stroke-width="3.175"
         id="path88" /><path
         d="m 1.9327822,180.61411 -19.5984812,-5.06466 -41.984083,1.49847"
         fill="none"
         stroke="#000000"
         stroke-dashoffset="0.8"
         stroke-linejoin="round"
         stroke-width="3.175"
         id="path89" /><path
         d="m -151.48057,217.78807 c 0,0 17.907,-17.907 17.907,-18.97619 0,-1.06918 12.56162,-102.631869 12.56162,-102.631869 l 62.007752,0.534538 8.285427,32.874481 -9.621573,64.68004 21.022468,16.87592 -24.76447,6.64368 z"
         fill="#ffffff"
         stroke="#000000"
         stroke-dashoffset="0.8"
         stroke-linejoin="round"
         stroke-width="3.175"
         id="path90" /><path
         d="m -58.823491,97.431754 -0.719349,0.338984 -12.022137,100.226812 7.383462,19.7776 h 0.09922 l 24.762618,-6.63972 -21.025379,-16.88359 9.624219,-64.67475 z"
         fill="#cccccc"
         stroke="#000000"
         stroke-dashoffset="0.8"
         stroke-linejoin="round"
         stroke-width="3.175"
         id="path91" /><path
         d="m -60.609425,194.79577 -10.690754,3.47451 -62.007751,0.26728"
         fill="none"
         stroke="#000000"
         stroke-dashoffset="0.8"
         stroke-linejoin="round"
         stroke-width="3.175"
         id="path92" /><path
         d="M 218.38047,200.82827 C 218.04577,156.4259 203.2045,130.15542 187.00882,105.57828"
         fill="none"
         stroke="#000000"
         stroke-dashoffset="0.8"
         stroke-linecap="round"
         stroke-linejoin="round"
         stroke-width="3.70417"
         id="path93" /><path
         d="M 221.0263,5.8065476 C 235.95859,30.82396 230.5767,69.116047 213.0888,93.497401 195.6009,117.87875 158.26713,134.81473 129.93291,132.80655 101.59868,130.79836 79.450406,107.09116 69.07874,83.292422 58.706544,59.492886 61.008154,27.375381 74.748496,6.1849017 88.488837,-15.00399 114.06558,-27.385431 140.89433,-27.454223 c 26.82875,-0.06879 65.19862,8.244417 80.13171,33.2607706 z"
         fill="#ffffff"
         stroke="#000000"
         stroke-dashoffset="0.8"
         stroke-linecap="round"
         stroke-linejoin="round"
         stroke-width="4.23333"
         id="path94" /><path
         d="m 58.143775,50.359735 c 6.313752,0.950198 10.393363,2.133203 28.424187,2.212498 3.75285,0.01651 7.943321,-1.935903 8.136731,-4.5847"
         fill="none"
         stroke="#000000"
         stroke-dashoffset="0.8"
         stroke-linecap="round"
         stroke-linejoin="round"
         stroke-width="3.175"
         id="path95" /><path
         d="m 65.007596,70.510401 c 7.906808,2.138151 19.210337,2.686314 23.849012,-1.84322 4.638675,-4.529666 1.808824,-15.729743 0.739749,-17.867841"
         fill="none"
         stroke="#000000"
         stroke-dashoffset="0.8"
         stroke-linejoin="round"
         stroke-width="3.175"
         id="path96" /><path
         d="m 113.12128,48.441505 c -0.57761,5.785909 4.89215,5.993607 9.49616,5.347229 17.07621,-2.396569 29.96935,-5.789877 42.5159,-9.579504 6.07324,10.585715 1.14646,21.516711 -4.68657,25.480698 -9.59538,6.520921 -27.37379,6.748462 -36.51514,0.08654 -5.80311,-4.2291 -6.79053,-9.781117 -5.76422,-15.402454"
         fill="none"
         stroke="#000000"
         stroke-dashoffset="0.8"
         stroke-linecap="round"
         stroke-linejoin="round"
         stroke-width="3.175"
         id="path101" /><path
         d="m 130.60613,62.218881 a 2.672746,2.672746 0 1 1 -5.34549,0 2.672746,2.672746 0 1 1 5.34549,0 z"
         id="path102"
         style="stroke-width:0.17639" /><path
         d="m 75.006592,60.620797 a 2.672746,2.672746 0 1 1 -5.345492,0 2.672746,2.672746 0 1 1 5.345492,0 z"
         id="path103"
         style="stroke-width:0.17639" /><path
         d="m 95.727573,94.063609 c 7.983537,-6.303169 15.011137,-5.164931 23.245497,0.566949"
         fill="none"
         stroke="#000000"
         stroke-linecap="round"
         stroke-width="1.5875"
         id="path104" /><path
         d="m 200.9947,129.78236 c 1.16744,24.30833 -8.33755,64.08208 -20.78858,76.72916 C 177.27321,174.22971 155.34878,87.888234 102.34189,87.82738 66.800413,87.785605 67.9196,160.95027 81.185014,201.286 c 2.137754,6.49976 3.434292,5.46709 8.344165,2.78924 42.518541,-23.18755 60.729811,-52.45629 84.507911,-80.33279"
         fill="none"
         stroke="#000000"
         stroke-dashoffset="0.8"
         stroke-linecap="round"
         stroke-linejoin="round"
         stroke-width="3.70417"
         id="path105" /><path
         d="m 101.46903,47.475776 c 0.29273,1.547812 -0.2861,4.795573 -1.965353,5.717381"
         fill="none"
         stroke="#000000"
         stroke-dashoffset="0.8"
         stroke-linecap="round"
         stroke-linejoin="round"
         stroke-width="1.85208"
         id="path106" /><path
         d="m 104.59111,47.523401 c -0.22114,2.643558 0.45294,3.931179 1.87563,5.971381"
         fill="none"
         stroke="#000000"
         stroke-dashoffset="0.8"
         stroke-linecap="round"
         stroke-linejoin="round"
         stroke-width="1.85208"
         id="path107" /><path
         d="m 103.57247,102.78692 c 2.23496,-1.28558 6.91171,-1.38668 9.38001,0.6595"
         fill="none"
         stroke="#000000"
         stroke-linecap="round"
         stroke-width="1.5875"
         id="path108" /><path
         d="m -26.398804,40.530463 8.938419,-10.053372"
         fill="#ffffff"
         stroke="#000000"
         stroke-width="3.175"
         id="path109" /></g><g
       id="g120"
       transform="translate(-771.70096,-86.669677)"><polygon
         class="st1"
         points="300.4,292.5 331.4,276.2 359.1,303.5 391.5,297.1 420.1,331.3 449.8,364.5 449.8,213.8 249,213.8 248.9,248.5 272.4,256.5 "
         id="polygon109"
         transform="matrix(-1.0060592,0,0,1.0060592,317.87973,110.02385)" /><polygon
         class="st10"
         points="461.5,358.2 420.1,331.3 391.5,297.1 359.1,303.5 331.4,276.2 300.4,292.5 272.4,256.5 240.8,248.3 249,364.5 449.8,364.5 "
         id="polygon110"
         transform="matrix(-1.0060592,0,0,1.0060592,317.87973,110.02385)" /><path
         class="st3"
         d="m -80.519712,415.66464 v -6.63999 h 1.00606 c 0,0 0.60363,0 1.00606,0 v 6.63999 h -1.00606 c 0,0 -0.70425,0.1006 -1.00606,0 z"
         id="path110"
         style="stroke-width:1.00606" /><rect
         class="st5"
         x="74.382782"
         y="409.32645"
         width="3.2193894"
         height="67.305359"
         id="rect110"
         style="stroke-width:1.00606"
         transform="scale(-1,1)" /><rect
         class="st5"
         x="41.786469"
         y="415.36282"
         width="3.2193894"
         height="58.250828"
         id="rect111"
         style="stroke-width:1.00606"
         transform="scale(-1,1)" /><rect
         class="st5"
         x="13.918608"
         y="387.8974"
         width="3.2193894"
         height="87.426544"
         id="rect112"
         style="stroke-width:1.00606"
         transform="scale(-1,1)" /><rect
         class="st5"
         x="-45.53949"
         y="367.77625"
         width="3.2193894"
         height="105.3344"
         id="rect113"
         style="stroke-width:1.00606"
         transform="scale(-1,1)" /><rect
         class="st5"
         x="-17.269197"
         y="404.29617"
         width="3.2193894"
         height="74.750198"
         id="rect114"
         style="stroke-width:1.00606"
         transform="scale(-1,1)" /><rect
         class="st5"
         x="103.1561"
         y="443.33124"
         width="3.2193894"
         height="28.873899"
         id="rect115"
         style="stroke-width:1.00606"
         transform="scale(-1,1)" /><polygon
         class="st5"
         points="245,251.6 245,247.8 273.6,254.9 300.9,290.1 331.8,274 359.7,301.5 392.2,295 421.5,330.1 452.1,349.5 452.1,352.3 449.6,352.3 418.7,332.5 390.7,299.1 358.5,305.5 331.1,278.5 299.8,294.8 271.3,258 "
         id="polygon115"
         transform="matrix(-1.0060592,0,0,1.0060592,317.87973,110.02385)" /><path
         class="st11"
         d="m -96.717272,443.33127 c 0,4.42665 -3.621808,8.04847 -8.048468,8.04847 -4.42666,0 -8.04847,-3.62182 -8.04847,-8.04847 0,-4.42667 3.62181,-8.04848 8.04847,-8.04848 4.42666,0 8.048468,3.62181 8.048468,8.04848 z"
         id="path115"
         style="stroke-width:1.00606" /><path
         class="st11"
         d="m -67.843372,409.32646 c 0,4.42666 -3.62181,8.04848 -8.04847,8.04848 -4.42666,0 -8.04847,-3.62182 -8.04847,-8.04848 0,-4.42666 3.62181,-8.04847 8.04847,-8.04847 4.42666,0 8.04847,3.52121 8.04847,8.04847 z"
         id="path116"
         style="stroke-width:1.00606" /><path
         class="st11"
         d="m -35.347662,414.85979 c 0,4.42666 -3.62181,8.04847 -8.04847,8.04847 -4.42666,0 -8.04847,-3.62181 -8.04847,-8.04847 0,-4.42666 3.62181,-8.04847 8.04847,-8.04847 4.42666,0 8.04847,3.62181 8.04847,8.04847 z"
         id="path117"
         style="stroke-width:1.00606" /><path
         class="st11"
         d="m -7.4798216,388.09862 c 0,4.42666 -3.6218104,8.04847 -8.0484704,8.04847 -4.42666,0 -8.04847,-3.62181 -8.04847,-8.04847 0,-4.42667 3.62181,-8.04848 8.04847,-8.04848 4.42666,-0.1006 8.0484704,3.52121 8.0484704,8.04848 z"
         id="path118"
         style="stroke-width:1.00606" /><path
         class="st11"
         d="m 23.808628,404.69859 c 0,4.42666 -3.62182,8.04848 -8.04848,8.04848 -4.42666,0 -8.0484696,-3.62182 -8.0484696,-8.04848 0,-4.42666 3.6218096,-8.04847 8.0484696,-8.04847 4.42666,0 8.04848,3.62181 8.04848,8.04847 z"
         id="path119"
         style="stroke-width:1.00606" /><path
         class="st11"
         d="m 52.078888,367.77622 c 0,4.42666 -3.62181,8.04847 -8.04847,8.04847 -4.42666,0 -8.04848,-3.62181 -8.04848,-8.04847 0,-4.42666 3.62182,-8.04847 8.04848,-8.04847 4.42666,-0.10061 8.04847,3.5212 8.04847,8.04847 z"
         id="path120"
         style="stroke-width:1.00606" /></g><g
       id="g134"
       transform="translate(-769.58708,-11.265517)"><polygon
         class="st5"
         points="159,262.1 190.4,262.1 190.4,394.5 74.1,394.5 74.1,230.8 159,230.8 "
         id="polygon120"
         transform="matrix(1.1740178,0,0,1.1740178,-193.08364,-626.21236)"
         style="fill:#ffffff" /><polygon
         class="st6"
         points="159,230.8 190.4,262.1 159,262.1 "
         id="polygon121"
         transform="matrix(1.1740178,0,0,1.1740178,-193.08364,-626.21236)"
         style="fill:#e3e3e3" /><rect
         class="st7"
         x="-89.183083"
         y="-315.33246"
         width="25.828392"
         height="6.457098"
         id="rect121"
         style="fill:#004e7a;stroke-width:1.17402" /><rect
         class="st7"
         x="-53.610321"
         y="-315.33246"
         width="25.828392"
         height="6.457098"
         id="rect122"
         style="fill:#004e7a;stroke-width:1.17402" /><rect
         class="st7"
         x="-89.183083"
         y="-260.74063"
         width="25.828392"
         height="6.457098"
         id="rect123"
         style="fill:#004e7a;stroke-width:1.17402" /><rect
         class="st7"
         x="-53.610321"
         y="-260.74063"
         width="25.828392"
         height="6.457098"
         id="rect124"
         style="fill:#004e7a;stroke-width:1.17402" /><rect
         class="st7"
         x="-89.183083"
         y="-187.95152"
         width="25.828392"
         height="6.457098"
         id="rect125"
         style="fill:#004e7a;stroke-width:1.17402" /><rect
         class="st7"
         x="-53.610321"
         y="-187.95152"
         width="25.828392"
         height="6.457098"
         id="rect126"
         style="fill:#004e7a;stroke-width:1.17402" /><rect
         class="st7"
         x="-53.610321"
         y="-278.93793"
         width="67.036415"
         height="6.457098"
         id="rect127"
         style="fill:#004e7a;stroke-width:1.17402" /><rect
         class="st7"
         x="-69.811798"
         y="-242.54335"
         width="67.036415"
         height="6.457098"
         id="rect128"
         style="fill:#004e7a;stroke-width:1.17402" /><rect
         class="st7"
         x="-72.159821"
         y="-297.13519"
         width="15.144829"
         height="6.457098"
         id="rect129"
         style="fill:#004e7a;stroke-width:1.17402" /><rect
         class="st7"
         x="-49.031647"
         y="-297.13519"
         width="54.709229"
         height="6.457098"
         id="rect130"
         style="fill:#004e7a;stroke-width:1.17402" /><rect
         class="st7"
         x="-72.159821"
         y="-206.14879"
         width="15.144829"
         height="6.457098"
         id="rect131"
         style="fill:#004e7a;stroke-width:1.17402" /><rect
         class="st7"
         x="-49.031647"
         y="-206.14879"
         width="54.709229"
         height="6.457098"
         id="rect132"
         style="fill:#004e7a;stroke-width:1.17402" /><rect
         class="st7"
         x="-51.497101"
         y="-223.52426"
         width="12.56199"
         height="6.457098"
         id="rect133"
         style="fill:#004e7a;stroke-width:1.17402" /><rect
         class="st7"
         x="-32.125763"
         y="-223.52426"
         width="45.669292"
         height="6.457098"
         id="rect134"
         style="fill:#004e7a;stroke-width:1.17402" /></g><g
       id="g135"
       transform="rotate(90,-278.03497,-732.14314)"
       style="stroke:#ffffff;stroke-opacity:1"><path
         style="fill:#000000;stroke:#ffffff;stroke-width:3;stroke-linecap:round;stroke-dasharray:none;stroke-opacity:1"
         id="path134"
         d="m 310.29876,-193.56135 c 2.16345,-0.71596 4.29381,-1.84927 6.42118,-2.99083 4.8071,-2.56603 9.69263,-3.90712 14.60395,-4.80476 11.45045,-1.34774 22.92242,-1.31737 34.38485,-1.4143 8.74472,-0.0418 17.48944,-0.014 26.23411,0.0601 2.59471,0.0252 1.39227,-0.0463 3.60778,0.16598 0,0 -1.35647,-2.29325 -1.35647,-2.29325 v 0 c -2.19816,-0.15867 -1.00534,-0.11098 -3.57872,-0.10023 -8.71356,0.0323 -17.42715,0.0333 -26.14069,0.0987 -11.4885,0.10268 -22.98524,0.087 -34.46363,1.31644 -4.93399,0.87901 -9.84459,2.20528 -14.67563,4.75695 -2.13165,1.11414 -4.26346,2.26616 -6.43355,2.91045 z" /><path
         style="fill:#000000;stroke:#ffffff;stroke-width:3;stroke-linecap:round;stroke-dasharray:none;stroke-opacity:1"
         id="path135"
         d="m 386.13359,-215.95381 c 1.95699,-0.10514 3.91568,0.17185 5.8563,0.74912 2.18447,0.89158 4.29848,2.47661 6.44934,3.70192 1.45607,1.29052 3.11373,1.33958 4.51049,2.96375 -0.38578,-0.4975 -0.75582,-1.0665 -1.15733,-1.49251 -0.003,-0.003 0.24442,0.32861 0.21207,0.96029 -0.0468,0.91309 -0.42099,1.50012 -0.68996,2.0404 -1.77149,2.98177 -3.86389,4.71115 -5.88312,6.57365 -3.25729,3.21595 -6.6458,5.6046 -10.05805,7.75871 -0.41466,0.23768 -0.82933,0.47536 -1.24398,0.71304 0,0 1.39055,2.21406 1.39055,2.21406 v 0 c 0.41318,-0.2436 0.82635,-0.48721 1.23952,-0.73081 3.41179,-2.19529 6.80132,-4.60304 10.067,-7.79599 2.04241,-1.8694 4.15944,-3.6087 5.94384,-6.6427 1.56534,-3.2054 0.59623,-3.88133 -1.16326,-6.0655 -1.42987,-1.43686 -3.04557,-1.65543 -4.51239,-2.86986 -2.15354,-1.24353 -4.27374,-2.83266 -6.46732,-3.67474 -1.95072,-0.54402 -3.9153,-0.8059 -5.88063,-0.72969 z" /></g><g
       id="g137"
       transform="rotate(90,-442.07657,-568.10169)"
       style="stroke:#ffffff;stroke-opacity:1"><path
         style="fill:#000000;stroke:#ffffff;stroke-width:3;stroke-linecap:round;stroke-dasharray:none;stroke-opacity:1"
         id="path136"
         d="m 310.29876,-193.56135 c 2.16345,-0.71596 4.29381,-1.84927 6.42118,-2.99083 4.8071,-2.56603 9.69263,-3.90712 14.60395,-4.80476 11.45045,-1.34774 22.92242,-1.31737 34.38485,-1.4143 8.74472,-0.0418 17.48944,-0.014 26.23411,0.0601 2.59471,0.0252 1.39227,-0.0463 3.60778,0.16598 0,0 -1.35647,-2.29325 -1.35647,-2.29325 v 0 c -2.19816,-0.15867 -1.00534,-0.11098 -3.57872,-0.10023 -8.71356,0.0323 -17.42715,0.0333 -26.14069,0.0987 -11.4885,0.10268 -22.98524,0.087 -34.46363,1.31644 -4.93399,0.87901 -9.84459,2.20528 -14.67563,4.75695 -2.13165,1.11414 -4.26346,2.26616 -6.43355,2.91045 z" /><path
         style="fill:#000000;stroke:#ffffff;stroke-width:3;stroke-linecap:round;stroke-dasharray:none;stroke-opacity:1"
         id="path137"
         d="m 386.13359,-215.95381 c 1.95699,-0.10514 3.91568,0.17185 5.8563,0.74912 2.18447,0.89158 4.29848,2.47661 6.44934,3.70192 1.45607,1.29052 3.11373,1.33958 4.51049,2.96375 -0.38578,-0.4975 -0.75582,-1.0665 -1.15733,-1.49251 -0.003,-0.003 0.24442,0.32861 0.21207,0.96029 -0.0468,0.91309 -0.42099,1.50012 -0.68996,2.0404 -1.77149,2.98177 -3.86389,4.71115 -5.88312,6.57365 -3.25729,3.21595 -6.6458,5.6046 -10.05805,7.75871 -0.41466,0.23768 -0.82933,0.47536 -1.24398,0.71304 0,0 1.39055,2.21406 1.39055,2.21406 v 0 c 0.41318,-0.2436 0.82635,-0.48721 1.23952,-0.73081 3.41179,-2.19529 6.80132,-4.60304 10.067,-7.79599 2.04241,-1.8694 4.15944,-3.6087 5.94384,-6.6427 1.56534,-3.2054 0.59623,-3.88133 -1.16326,-6.0655 -1.42987,-1.43686 -3.04557,-1.65543 -4.51239,-2.86986 -2.15354,-1.24353 -4.27374,-2.83266 -6.46732,-3.67474 -1.95072,-0.54402 -3.9153,-0.8059 -5.88063,-0.72969 z" /></g></g><style
     type="text/css"
     id="style1">.st0{fill:#D35500;} .st1{fill:#00D6D6;} .st2{fill:#FFBB00;} .st3{fill:#FFDC12;} .st4{fill:#FF8C00;} .st5{fill:#FFFFFF;} .st6{fill:#E3E3E3;} .st7{fill:#004E7A;} .st8{fill:#002B45;} .st9{clip-path:url(#b);} .st10{fill:#00B0B3;} .st11{fill:#FF453B;}</style></svg>
